<svg width="30.000000" height="23.000000" id="3-social" viewBox="0 0 30 23" fill="none" xmlns="http://www.w3.org/2000/svg" xmlns:xlink="http://www.w3.org/1999/xlink">
	<desc>
			Created with Pixso.
	</desc>
	<defs/>
	<path id="Vector" d="M29.99 0L29.07 2.5L26.65 2.5L22.31 17.5L5.76 17.5L-0.01 3.75L21.01 3.75L20.3 6.25L3.75 6.25L7.43 15L20.46 15L24.75 0L29.99 0ZM10.62 18.75C9.58 18.75 8.74 19.59 8.74 20.62C8.74 21.66 9.58 22.5 10.62 22.5C11.65 22.5 12.49 21.66 12.49 20.62C12.49 19.59 11.65 18.75 10.62 18.75ZM19.24 10L16.87 18.75C15.83 18.75 14.99 19.58 14.99 20.62C14.99 21.66 15.83 22.5 16.87 22.5C17.9 22.5 18.74 21.66 18.74 20.62C18.74 19.59 17.9 18.75 16.87 18.75L19.24 10Z" fill="#2F3035" fill-opacity="1.000000" fill-rule="nonzero"/>
</svg>
