<svg width="60.000000" height="40.000000" id="cart-blue" viewBox="0 0 60 40" fill="none" xmlns="http://www.w3.org/2000/svg" xmlns:xlink="http://www.w3.org/1999/xlink">
	<desc>
			Created with Pixso.
	</desc>
	<defs/>
	<path id="Rectangle 2.7" d="M10 0L60 0L60 40L0 40L0 10C0 4.47 4.47 0 10 0Z" fill="#1C62CD" fill-opacity="1.000000" fill-rule="evenodd"/>
	<path id="Vector" d="M44 6.65L43.07 9.14L40.65 9.14L36.31 24.1L19.76 24.1L14 10.39L35.01 10.39L34.31 12.88L17.76 12.88L21.43 21.61L34.46 21.61L38.75 6.65L44 6.65ZM24.62 25.35C23.59 25.35 22.75 26.19 22.75 27.22C22.75 28.25 23.59 29.09 24.62 29.09C25.65 29.09 26.5 28.25 26.5 27.22C26.5 26.19 25.65 25.35 24.62 25.35ZM33.25 16.62L30.87 25.35C29.84 25.35 29 26.18 29 27.22C29 28.25 29.84 29.09 30.87 29.09C31.9 29.09 32.75 28.25 32.75 27.22C32.75 26.19 31.9 25.35 30.87 25.35L33.25 16.62Z" fill="#FFFFFF" fill-opacity="1.000000" fill-rule="nonzero"/>
</svg>
