<svg width="30.000000" height="23.000000" id="cart-popular" viewBox="0 0 30 23" fill="none" xmlns="http://www.w3.org/2000/svg" xmlns:xlink="http://www.w3.org/1999/xlink">
	<desc>
			Created with Pixso.
	</desc>
	<defs/>
	<path id="Vector" d="M30 0L29.07 2.5L26.66 2.5L22.31 17.5L5.76 17.5L0 3.75L21.01 3.75L20.31 6.25L3.75 6.25L7.43 15L20.46 15L24.75 0L30 0ZM10.62 18.75C9.58 18.75 8.75 19.59 8.75 20.62C8.75 21.66 9.58 22.5 10.62 22.5C11.66 22.5 12.5 21.66 12.5 20.62C12.5 19.59 11.66 18.75 10.62 18.75ZM19.25 10L16.87 18.75C15.83 18.75 15 19.58 15 20.62C15 21.66 15.83 22.5 16.87 22.5C17.91 22.5 18.75 21.66 18.75 20.62C18.75 19.59 17.91 18.75 16.87 18.75L19.25 10Z" fill="#FFFFFF" fill-opacity="1.000000" fill-rule="nonzero"/>
</svg>
