<svg width="17.572266" height="16.500000" id="delivery" viewBox="0 0 17.5723 16.5" fill="none" xmlns="http://www.w3.org/2000/svg" xmlns:xlink="http://www.w3.org/1999/xlink">
	<desc>
			Created with Pixso.
	</desc>
	<defs/>
	<path id="Vector" d="M10.92 2.89L16.82 2.89L16.82 14.91C16.82 15.43 16.35 15.75 15.85 15.75L1.64 15.75C1.13 15.75 0.75 15.35 0.75 14.83L0.75 2.89L6.57 2.89" stroke="#2F3035" stroke-opacity="1.000000" stroke-width="1.500000"/>
	<path id="Vector" d="M11.13 2.89L16.76 2.89C16.8 2.89 16.84 2.86 16.8 2.82L14.7 0.75L2.86 0.75L0.76 2.82C0.72 2.86 0.76 2.89 0.8 2.89L6.43 2.89" stroke="#2F3035" stroke-opacity="1.000000" stroke-width="1.500000"/>
	<path id="Vector" d="M11.46 2.89L10.53 0.75L7.13 0.75L6.1 2.89" stroke="#2F3035" stroke-opacity="1.000000" stroke-width="1.500000"/>
	<path id="Vector" d="M11.46 2.89L11.46 7.17L8.85 5.67L6.1 7.17L6.1 2.89" stroke="#2F3035" stroke-opacity="1.000000" stroke-width="1.500000"/>
	<path id="Vector" d="M6.87 11.46C6.42 11.46 6.1 11.02 6.1 10.53L6.1 10.24C6.1 9.71 6.46 9.32 6.87 9.32L10.69 9.32C11.13 9.32 11.46 9.75 11.46 10.24L11.46 10.53C11.5 11.07 11.13 11.46 10.73 11.46L6.87 11.46Z" stroke="#2F3035" stroke-opacity="1.000000" stroke-width="1.500000"/>
</svg>
