<svg width="30.000000" height="30.000000" id="footer-4" viewBox="0 0 30 30" fill="none" xmlns="http://www.w3.org/2000/svg" xmlns:xlink="http://www.w3.org/1999/xlink">
	<desc>
			Created with Pixso.
	</desc>
	<defs>
		<clipPath id="clip58_20">
			<rect id="youtube 1" width="30.000000" height="30.000000" fill="white" fill-opacity="0"/>
		</clipPath>
	</defs>
	<rect id="youtube 1" width="30.000000" height="30.000000" fill="#FFFFFF" fill-opacity="0"/>
	<g clip-path="url(#clip58_20)">
		<path id="Vector" d="M13.13 17.81L18.01 14.99L13.13 12.18L13.13 17.81Z" fill="#2F3035" fill-opacity="1.000000" fill-rule="nonzero"/>
		<path id="Vector" d="M15 0C6.71 0 0 6.71 0 15C0 23.28 6.71 30 15 30C23.28 30 30 23.28 30 15C30 6.71 23.28 0 15 0ZM24.37 15.01C24.37 15.01 24.37 18.05 23.98 19.52C23.77 20.32 23.13 20.96 22.33 21.17C20.86 21.56 15 21.56 15 21.56C15 21.56 9.14 21.56 7.66 21.16C6.86 20.94 6.22 20.31 6.01 19.5C5.62 18.05 5.62 15 5.62 15C5.62 15 5.62 11.95 6.01 10.49C6.22 9.68 6.87 9.03 7.66 8.82C9.13 8.43 15 8.43 15 8.43C15 8.43 20.86 8.43 22.33 8.83C23.13 9.05 23.77 9.68 23.98 10.49C24.38 11.95 24.37 15.01 24.37 15.01Z" fill="#2F3035" fill-opacity="1.000000" fill-rule="nonzero"/>
	</g>
</svg>
