<svg width="30.000000" height="30.000000" id="footer-3" viewBox="0 0 30 30" fill="none" xmlns="http://www.w3.org/2000/svg" xmlns:xlink="http://www.w3.org/1999/xlink">
	<desc>
			Created with Pixso.
	</desc>
	<defs>
		<clipPath id="clip58_7">
			<rect id="facebook 1" width="30.000000" height="30.000000" fill="white" fill-opacity="0"/>
		</clipPath>
	</defs>
	<rect id="facebook 1" width="30.000000" height="30.000000" fill="#FFFFFF" fill-opacity="0"/>
	<g clip-path="url(#clip58_7)">
		<path id="Vector" d="M17.41 29.8C17.29 29.82 17.16 29.84 17.04 29.86C17.16 29.84 17.29 29.82 17.41 29.8Z" fill="#2F3035" fill-opacity="1.000000" fill-rule="nonzero"/>
		<path id="Vector" d="M17.71 29.75C17.65 29.76 17.59 29.77 17.53 29.78C17.59 29.77 17.65 29.76 17.71 29.75Z" fill="#2F3035" fill-opacity="1.000000" fill-rule="nonzero"/>
		<path id="Vector" d="M16.7 29.9C16.56 29.91 16.41 29.93 16.26 29.94C16.41 29.93 16.56 29.91 16.7 29.9Z" fill="#2F3035" fill-opacity="1.000000" fill-rule="nonzero"/>
		<path id="Vector" d="M16.99 29.86C16.92 29.87 16.85 29.88 16.78 29.89C16.85 29.88 16.92 29.87 16.99 29.86Z" fill="#2F3035" fill-opacity="1.000000" fill-rule="nonzero"/>
		<path id="Vector" d="M18.12 29.67C18.07 29.68 18.02 29.69 17.96 29.7C18.02 29.69 18.07 29.68 18.12 29.67Z" fill="#2F3035" fill-opacity="1.000000" fill-rule="nonzero"/>
		<path id="Vector" d="M19.14 29.42C19.09 29.43 19.05 29.44 19.01 29.45C19.05 29.44 19.09 29.43 19.14 29.42Z" fill="#2F3035" fill-opacity="1.000000" fill-rule="nonzero"/>
		<path id="Vector" d="M18.83 29.5C18.78 29.51 18.74 29.52 18.69 29.54C18.74 29.52 18.78 29.51 18.83 29.5Z" fill="#2F3035" fill-opacity="1.000000" fill-rule="nonzero"/>
		<path id="Vector" d="M18.43 29.6C18.38 29.61 18.33 29.62 18.28 29.63C18.33 29.62 18.38 29.61 18.43 29.6Z" fill="#2F3035" fill-opacity="1.000000" fill-rule="nonzero"/>
		<path id="Vector" d="M16.26 29.94C16.18 29.95 16.1 29.95 16.02 29.96C16.1 29.95 16.18 29.95 16.26 29.94Z" fill="#2F3035" fill-opacity="1.000000" fill-rule="nonzero"/>
		<path id="Vector" d="M30 15C30 6.71 23.28 0 15 0C6.71 0 0 6.71 0 15C0 23.28 6.71 30 15 30C15.08 30 15.17 29.99 15.26 29.99L15.26 18.31L12.04 18.31L12.04 14.56L15.26 14.56L15.26 11.8C15.26 8.59 17.22 6.85 20.07 6.85C21.44 6.85 22.62 6.95 22.96 6.99L22.96 10.34L20.99 10.34C19.44 10.34 19.14 11.08 19.14 12.17L19.14 14.56L22.85 14.56L22.37 18.31L19.14 18.31L19.14 29.42C25.41 27.62 30 21.84 30 15Z" fill="#2F3035" fill-opacity="1.000000" fill-rule="nonzero"/>
		<path id="Vector" d="M15.99 29.96C15.83 29.97 15.67 29.98 15.52 29.98C15.67 29.98 15.83 29.97 15.99 29.96Z" fill="#2F3035" fill-opacity="1.000000" fill-rule="nonzero"/>
		<path id="Vector" d="M15.51 29.99C15.42 29.99 15.34 29.99 15.26 29.99C15.34 29.99 15.42 29.99 15.51 29.99Z" fill="#2F3035" fill-opacity="1.000000" fill-rule="nonzero"/>
	</g>
</svg>
