<svg width="30.000000" height="30.000000" id="footer-2" viewBox="0 0 30 30" fill="none" xmlns="http://www.w3.org/2000/svg" xmlns:xlink="http://www.w3.org/1999/xlink">
	<desc>
			Created with Pixso.
	</desc>
	<defs>
		<clipPath id="clip58_5">
			<rect id="vk 1" width="30.000000" height="30.000000" fill="white" fill-opacity="0"/>
		</clipPath>
	</defs>
	<rect id="vk 1" width="30.000000" height="30.000000" fill="#FFFFFF" fill-opacity="0"/>
	<g clip-path="url(#clip58_5)">
		<path id="Vector" d="M24.89 16.28C24.4 15.67 24.54 15.4 24.89 14.85C24.89 14.84 28.9 9.31 29.31 7.43L29.31 7.43C29.52 6.75 29.31 6.25 28.32 6.25L25.04 6.25C24.21 6.25 23.82 6.68 23.62 7.16C23.62 7.16 21.95 11.16 19.58 13.75C18.82 14.5 18.47 14.74 18.05 14.74C17.85 14.74 17.53 14.5 17.53 13.81L17.53 7.43C17.53 6.61 17.29 6.25 16.6 6.25L11.45 6.25C10.92 6.25 10.61 6.63 10.61 6.98C10.61 7.76 11.79 7.94 11.91 10.13L11.91 14.87C11.91 15.91 11.73 16.11 11.31 16.11C10.19 16.11 7.49 12.09 5.88 7.5C5.56 6.61 5.24 6.25 4.4 6.25L1.12 6.25C0.18 6.25 0 6.68 0 7.16C0 8.01 1.11 12.25 5.18 17.85C7.89 21.67 11.71 23.75 15.19 23.75C17.28 23.75 17.53 23.29 17.53 22.49C17.53 18.84 17.34 18.5 18.39 18.5C18.87 18.5 19.71 18.74 21.66 20.58C23.89 22.77 24.25 23.75 25.5 23.75L28.78 23.75C29.72 23.75 30.19 23.29 29.92 22.38C29.29 20.47 25.08 16.54 24.89 16.28Z" fill="#2F3035" fill-opacity="1.000000" fill-rule="nonzero"/>
	</g>
</svg>
