<svg width="30.000000" height="30.000000" id="footer-1" viewBox="0 0 30 30" fill="none" xmlns="http://www.w3.org/2000/svg" xmlns:xlink="http://www.w3.org/1999/xlink">
	<desc>
			Created with Pixso.
	</desc>
	<defs>
		<clipPath id="clip58_1">
			<rect id="instagram-sketched (1) 1" width="30.000000" height="30.000000" fill="white" fill-opacity="0"/>
		</clipPath>
	</defs>
	<rect id="instagram-sketched (1) 1" width="30.000000" height="30.000000" fill="#FFFFFF" fill-opacity="0"/>
	<g clip-path="url(#clip58_1)">
		<path id="Vector" d="M15 7.29C10.75 7.29 7.3 10.74 7.3 14.99C7.3 19.24 10.75 22.69 15 22.69C19.25 22.69 22.7 19.24 22.7 14.99C22.7 10.74 19.25 7.29 15 7.29ZM15 19.99C12.24 19.99 10 17.75 10 14.99C10 12.23 12.24 9.99 15 9.99C17.76 9.99 20 12.23 20 14.99C20 17.75 17.76 19.99 15 19.99Z" fill="#2F3035" fill-opacity="1.000000" fill-rule="nonzero"/>
		<path id="Vector" d="M21.18 0.09C18.42 -0.04 11.58 -0.03 8.82 0.09C6.39 0.2 4.25 0.79 2.53 2.52C-0.36 5.4 0.01 9.29 0.01 14.99C0.01 20.83 -0.32 24.62 2.53 27.46C5.42 30.36 9.37 29.98 15 29.98C20.78 29.98 22.77 29.98 24.82 29.19C27.6 28.11 29.69 25.63 29.9 21.17C30.03 18.41 30.02 11.57 29.9 8.81C29.65 3.54 26.83 0.35 21.18 0.09ZM25.55 25.56C23.66 27.45 21.03 27.28 14.96 27.28C8.71 27.28 6.21 27.37 4.38 25.54C2.27 23.44 2.65 20.07 2.65 14.97C2.65 8.06 1.94 3.09 8.88 2.74C10.47 2.68 10.94 2.66 14.95 2.66L15 2.7C21.66 2.7 26.89 2 27.2 8.93C27.27 10.51 27.29 10.99 27.29 14.99C27.29 21.17 27.41 23.69 25.55 25.56Z" fill="#2F3035" fill-opacity="1.000000" fill-rule="nonzero"/>
		<path id="Vector" d="M24.8 6.99C24.8 7.98 24 8.79 23 8.79C22.01 8.79 21.2 7.98 21.2 6.99C21.2 6 22.01 5.19 23 5.19C24 5.19 24.8 6 24.8 6.99Z" fill="#2F3035" fill-opacity="1.000000" fill-rule="evenodd"/>
	</g>
</svg>
