<svg width="18.000000" height="21.041382" id="home" viewBox="0 0 18 21.0414" fill="none" xmlns="http://www.w3.org/2000/svg" xmlns:xlink="http://www.w3.org/1999/xlink">
	<desc>
			Created with Pixso.
	</desc>
	<defs/>
	<path id="Vector" d="M6.33 19.54C6.33 19.81 6.1 20.04 5.83 20.04L1.5 20.04C1.22 20.04 1 19.81 1 19.54L1 7.92C1 7.78 1.06 7.64 1.17 7.54L8.67 1.12C8.86 0.95 9.13 0.95 9.32 1.12L16.82 7.54C16.93 7.64 17 7.78 17 7.92L17 19.54C17 19.81 16.77 20.04 16.5 20.04L12.16 20.04C11.89 20.04 11.66 19.81 11.66 19.54L11.66 13.68C11.66 13.4 11.44 13.18 11.16 13.18L6.83 13.18C6.55 13.18 6.33 13.4 6.33 13.68L6.33 19.54Z" stroke="#2F3035" stroke-opacity="1.000000" stroke-width="2.000000" stroke-linejoin="round"/>
</svg>
