<svg width="53.000000" height="42.015991" id="logo" viewBox="0 0 53 42.016" fill="none" xmlns="http://www.w3.org/2000/svg" xmlns:xlink="http://www.w3.org/1999/xlink">
	<desc>
			Created with Pixso.
	</desc>
	<defs/>
	<path id="Vector" d="M45.04 7.93C44.34 7.23 43.23 7.12 42.41 7.68C39.31 9.79 23.77 20.38 22.1 22.04C19.68 24.46 19.68 28.39 22.1 30.8C23.31 32.01 24.9 32.61 26.5 32.61C28.09 32.61 29.68 32.01 30.89 30.8C32.56 29.14 43.17 13.64 45.29 10.55C45.85 9.73 45.74 8.63 45.04 7.93ZM27.96 27.88C27.15 28.69 25.84 28.69 25.03 27.88C24.22 27.08 24.22 25.77 25.03 24.96C25.68 24.32 30.09 21.19 35.52 17.42C31.75 22.84 28.6 27.24 27.96 27.88Z" fill="#2F3035" fill-opacity="1.000000" fill-rule="nonzero"/>
	<path id="Vector" d="M9.54 36.03L6.99 37.27C5.12 33.94 4.14 30.23 4.14 26.42C4.14 23.64 4.65 20.97 5.59 18.51L8.52 19.91C8.81 20.05 9.11 20.11 9.41 20.11C10.18 20.11 10.93 19.68 11.28 18.94C11.78 17.91 11.34 16.68 10.31 16.18L7.42 14.8C11.01 8.96 17.23 4.88 24.42 4.22L24.42 7.32C24.42 8.46 25.35 9.39 26.5 9.39C27.64 9.39 28.57 8.46 28.57 7.32L28.57 4.22C31.03 4.44 33.42 5.07 35.68 6.09C36.73 6.56 37.95 6.09 38.42 5.06C38.89 4.02 38.43 2.79 37.39 2.32C33.95 0.78 30.29 0 26.5 0C19.42 0 12.76 2.74 7.76 7.74C2.75 12.73 0 19.36 0 26.42C0 31.64 1.55 36.71 4.48 41.09C4.88 41.68 5.53 42.01 6.21 42.01C6.51 42.01 6.82 41.94 7.11 41.8L11.36 39.74C12.39 39.24 12.81 38 12.31 36.98C11.81 35.95 10.57 35.53 9.54 36.03Z" fill="#2F3035" fill-opacity="1.000000" fill-rule="nonzero"/>
	<path id="Vector" d="M50.66 15.56C50.19 14.52 48.96 14.06 47.92 14.53C46.88 15 46.41 16.22 46.89 17.26C48.19 20.14 48.85 23.23 48.85 26.42C48.85 30.23 47.87 33.95 46 37.28L43.33 36.02C42.29 35.53 41.06 35.96 40.57 36.99C40.08 38.02 40.51 39.26 41.55 39.75L45.89 41.81C46.18 41.95 46.48 42.01 46.78 42.01C47.46 42.01 48.11 41.68 48.51 41.09C51.44 36.71 53 31.64 53 26.42C53 22.64 52.21 18.98 50.66 15.56Z" fill="#2F3035" fill-opacity="1.000000" fill-rule="nonzero"/>
</svg>
