<svg width="123.000000" height="76.000000" id="logo" viewBox="0 0 123 76" fill="none" xmlns="http://www.w3.org/2000/svg" xmlns:xlink="http://www.w3.org/1999/xlink">
	<desc>
			Created with Pixso.
	</desc>
	<defs/>
	<path id="DRIVE MOTO" d="M88.94 55.25C92.66 55.25 95.36 58.12 95.36 62.72C95.36 67.32 92.66 70.2 88.94 70.2C85.22 70.2 82.52 67.32 82.52 62.72C82.52 58.12 85.22 55.25 88.94 55.25ZM115.82 55.25C119.54 55.25 122.24 58.12 122.24 62.72C122.24 67.32 119.54 70.2 115.82 70.2C112.1 70.2 109.4 67.32 109.4 62.72C109.4 58.12 112.1 55.25 115.82 55.25ZM13.18 62.7C13.18 67.24 10.68 70 6.25 70L1.76 70L1.76 55.45L6.45 55.45C10.68 55.45 13.18 58.18 13.18 62.7ZM17.89 70L16.13 70L16.13 55.45L21.04 55.45C24.45 55.45 25.99 57.34 25.99 59.91C25.99 61.84 25.12 63.35 23.27 63.98L26.56 70L24.51 70L21.45 64.31C21.32 64.31 21.2 64.31 21.07 64.31L17.89 64.31L17.89 70ZM28.92 55.45L30.67 55.45L30.67 70L28.92 70L28.92 55.45ZM32.95 55.45L34.8 55.45L39.11 67.7L39.28 67.7L43.61 55.45L45.45 55.45L40.11 70L38.29 70L32.95 55.45ZM56.62 70L47.72 70L47.72 55.45L56.5 55.45L56.5 57.01L49.48 57.01L49.48 61.93L56.04 61.93L56.04 63.49L49.48 63.49L49.48 68.43L56.62 68.43L56.62 70ZM65.31 70L65.31 55.45L67.41 55.45L72.35 67.52L72.53 67.52L77.47 55.45L79.57 55.45L79.57 70L77.92 70L77.92 58.95L77.78 58.95L73.23 70L71.64 70L67.1 58.95L66.95 58.95L66.95 70L65.31 70ZM101.5 57.01L96.93 57.01L96.93 55.45L107.84 55.45L107.84 57.01L103.26 57.01L103.26 70L101.5 70L101.5 57.01ZM88.94 68.54C91.58 68.54 93.66 66.5 93.66 62.72C93.66 58.95 91.58 56.9 88.94 56.9C86.3 56.9 84.23 58.95 84.23 62.72C84.23 66.5 86.3 68.54 88.94 68.54ZM115.82 68.54C118.46 68.54 120.53 66.5 120.53 62.72C120.53 58.95 118.46 56.9 115.82 56.9C113.18 56.9 111.1 58.95 111.1 62.72C111.1 66.5 113.18 68.54 115.82 68.54ZM3.52 57.01L3.52 68.43L6.13 68.43C9.74 68.43 11.47 66.25 11.47 62.7C11.47 59.17 9.74 57.01 6.33 57.01L3.52 57.01ZM17.89 57.01L17.89 62.72L21.02 62.72C23.35 62.72 24.26 61.66 24.26 59.91C24.26 58.16 23.35 57.01 20.99 57.01L17.89 57.01Z" fill="#2F3035" fill-opacity="1.000000" fill-rule="evenodd"/>
	<path id="Vector" d="M59.04 7.95C58.34 7.25 57.23 7.14 56.41 7.7C53.31 9.82 37.77 20.43 36.1 22.1C33.68 24.53 33.68 28.47 36.1 30.89C37.31 32.1 38.9 32.7 40.5 32.7C42.09 32.7 43.68 32.1 44.89 30.89C46.56 29.22 57.17 13.68 59.29 10.58C59.85 9.76 59.74 8.65 59.04 7.95ZM41.96 27.96C41.15 28.77 39.84 28.77 39.03 27.96C38.22 27.15 38.22 25.84 39.03 25.03C39.68 24.39 44.09 21.24 49.52 17.47C45.75 22.9 42.6 27.31 41.96 27.96Z" fill="#2F3035" fill-opacity="1.000000" fill-rule="nonzero"/>
	<path id="Vector" d="M23.54 36.12L20.99 37.37C19.12 34.03 18.14 30.31 18.14 26.5C18.14 23.7 18.65 21.03 19.59 18.56L22.52 19.96C22.81 20.1 23.11 20.17 23.41 20.17C24.18 20.17 24.93 19.73 25.28 18.99C25.78 17.96 25.34 16.72 24.31 16.23L21.42 14.84C25.01 8.98 31.23 4.89 38.42 4.23L38.42 7.34C38.42 8.49 39.35 9.41 40.5 9.41C41.64 9.41 42.57 8.49 42.57 7.34L42.57 4.23C45.03 4.45 47.42 5.08 49.68 6.1C50.73 6.57 51.95 6.11 52.42 5.07C52.89 4.03 52.43 2.8 51.39 2.33C47.95 0.78 44.29 0 40.5 0C33.42 0 26.76 2.75 21.76 7.76C16.75 12.76 14 19.42 14 26.5C14 31.73 15.55 36.81 18.48 41.21C18.88 41.8 19.53 42.13 20.21 42.13C20.51 42.13 20.82 42.06 21.11 41.92L25.36 39.85C26.39 39.34 26.81 38.11 26.31 37.08C25.81 36.05 24.57 35.62 23.54 36.12Z" fill="#2F3035" fill-opacity="1.000000" fill-rule="nonzero"/>
	<path id="Vector" d="M64.66 15.6C64.19 14.56 62.96 14.1 61.92 14.57C60.88 15.04 60.41 16.26 60.89 17.31C62.19 20.2 62.85 23.29 62.85 26.5C62.85 30.31 61.87 34.05 60 37.39L57.33 36.12C56.29 35.62 55.06 36.06 54.57 37.1C54.08 38.13 54.51 39.36 55.55 39.85L59.89 41.92C60.18 42.06 60.48 42.13 60.78 42.13C61.46 42.13 62.11 41.8 62.51 41.21C65.44 36.81 67 31.73 67 26.5C67 22.7 66.21 19.04 64.66 15.6Z" fill="#2F3035" fill-opacity="1.000000" fill-rule="nonzero"/>
</svg>
