<svg width="25.000000" height="30.000000" id="map" viewBox="0 0 25 30" fill="none" xmlns="http://www.w3.org/2000/svg" xmlns:xlink="http://www.w3.org/1999/xlink">
	<desc>
			Created with Pixso.
	</desc>
	<defs/>
	<path id="Vector" d="M11.99 0C5.36 0 -0.04 5.39 -0.04 12.02C-0.04 12.77 0.03 13.54 0.18 14.28C0.18 14.32 0.21 14.45 0.26 14.68C0.44 15.49 0.71 16.29 1.06 17.05C2.36 20.1 5.21 24.79 11.46 29.81C11.62 29.93 11.81 30 12 30C12.18 30 12.37 29.93 12.53 29.81C18.78 24.79 21.63 20.1 22.93 17.05C23.28 16.29 23.55 15.5 23.73 14.68C23.78 14.45 23.81 14.32 23.81 14.28C23.95 13.54 24.03 12.77 24.03 12.02C24.01 5.39 18.62 0 11.99 0ZM22.13 13.98C22.13 14 22.12 14.01 22.12 14.02C22.11 14.05 22.1 14.15 22.06 14.29C22.06 14.3 22.06 14.3 22.06 14.3C21.91 15.01 21.67 15.69 21.37 16.35C21.36 16.36 21.36 16.37 21.35 16.38C20.18 19.16 17.6 23.42 11.99 28.05C6.38 23.42 3.8 19.16 2.62 16.38C2.62 16.37 2.62 16.36 2.61 16.35C2.31 15.7 2.08 15.01 1.91 14.3C1.91 14.3 1.91 14.3 1.91 14.29C1.88 14.15 1.86 14.05 1.86 14.02C1.86 14.01 1.85 14 1.85 13.98C1.72 13.33 1.66 12.67 1.66 12.01C1.66 6.32 6.3 1.69 11.99 1.69C17.68 1.69 22.32 6.32 22.32 12.01C22.32 12.68 22.25 13.34 22.13 13.98Z" fill="#000000" fill-opacity="1.000000" fill-rule="nonzero"/>
	<path id="Vector" d="M11.99 4.52C7.78 4.52 4.35 7.94 4.35 12.15C4.35 16.36 7.78 19.79 11.99 19.79C16.2 19.79 19.62 16.36 19.62 12.15C19.62 7.94 16.2 4.52 11.99 4.52ZM11.99 18.09C8.71 18.09 6.05 15.42 6.05 12.15C6.05 8.88 8.72 6.22 11.99 6.22C15.26 6.22 17.93 8.88 17.93 12.15C17.93 15.42 15.27 18.09 11.99 18.09Z" fill="#000000" fill-opacity="1.000000" fill-rule="nonzero"/>
</svg>
