<svg width="13.544922" height="15.693604" id="percent" viewBox="0 0 13.5449 15.6936" fill="none" xmlns="http://www.w3.org/2000/svg" xmlns:xlink="http://www.w3.org/1999/xlink">
	<desc>
			Created with Pixso.
	</desc>
	<defs/>
	<path id="%" d="M2.98 6.95C1.04 6.95 -0.01 5.55 -0.01 3.88L-0.01 3.07C-0.01 1.4 1.07 0 2.98 0C4.92 0 5.93 1.4 5.93 3.07L5.93 3.88C5.93 5.55 4.89 6.95 2.98 6.95ZM2.26 15.48L0.56 15.48L11.06 0.21L12.76 0.21L2.26 15.48ZM2.98 1.28C1.93 1.28 1.52 2.14 1.52 3.07L1.52 3.88C1.52 4.8 1.91 5.67 2.98 5.67C4.02 5.67 4.41 4.8 4.41 3.88L4.41 3.07C4.41 2.14 4.06 1.28 2.98 1.28ZM10.59 15.69C8.65 15.69 7.6 14.28 7.6 12.61L7.6 11.81C7.6 10.14 8.67 8.74 10.59 8.74C12.53 8.74 13.54 10.14 13.54 11.81L13.54 12.61C13.54 14.28 12.49 15.69 10.59 15.69ZM10.59 10.02C9.54 10.02 9.13 10.88 9.13 11.81L9.13 12.61C9.13 13.54 9.51 14.41 10.59 14.41C11.63 14.41 12.02 13.54 12.02 12.61L12.02 11.81C12.02 10.88 11.66 10.02 10.59 10.02Z" fill="#2F3035" fill-opacity="1.000000" fill-rule="evenodd"/>
</svg>
