<svg width="16.000000" height="16.295776" viewBox="0 0 16 16.2958" fill="none" xmlns="http://www.w3.org/2000/svg" xmlns:xlink="http://www.w3.org/1999/xlink">
	<desc>
			Created with Pixso.
	</desc>
	<defs/>
	<path id="Search" d="M0 6.28067C0 9.74936 2.76086 12.5613 6.16663 12.5613C7.62939 12.5613 8.97327 12.0426 10.0304 11.1759L14.8619 16.0969C15.1223 16.3621 15.5444 16.3621 15.8048 16.0969C16.0651 15.8317 16.0651 15.4018 15.8048 15.1366L10.9733 10.2157C11.8241 9.13895 12.3333 7.77036 12.3333 6.28067C12.3333 2.81195 9.57239 0 6.16663 0C2.76086 0 0 2.81195 0 6.28067ZM11 6.27997C11 8.99866 8.83606 11.2026 6.16663 11.2026C3.49731 11.2026 1.33325 8.99866 1.33325 6.27997C1.33325 3.56125 3.49731 1.3573 6.16663 1.3573C8.83606 1.3573 11 3.56125 11 6.27997Z" clip-rule="evenodd" fill="#C4C4C4" fill-opacity="1.000000" fill-rule="evenodd"/>
</svg>
