<svg width="143.000000" height="23.000000" id="stars" viewBox="0 0 143 23" fill="none" xmlns="http://www.w3.org/2000/svg" xmlns:xlink="http://www.w3.org/1999/xlink">
	<desc>
			Created with Pixso.
	</desc>
	<defs/>
	<path id="Star" d="M130.53 0L127.94 7.94L119.56 7.94L126.34 12.85L123.75 20.8L130.53 15.89L137.31 20.8L134.72 12.85L141.5 7.94L133.12 7.94L130.53 0Z" fill="#C4C4C4" fill-opacity="1.000000" fill-rule="nonzero"/>
	<path id="Star" d="M100.28 0L97.69 7.94L89.31 7.94L96.09 12.85L93.5 20.8L100.28 15.89L107.06 20.8L104.47 12.85L111.26 7.94L102.87 7.94L100.28 0Z" fill="#1C62CD" fill-opacity="1.000000" fill-rule="nonzero"/>
	<path id="Star" d="M70.11 0L67.52 7.94L59.13 7.94L65.92 12.85L63.33 20.8L70.11 15.89L76.89 20.8L74.3 12.85L81.08 7.94L72.7 7.94L70.11 0Z" fill="#1C62CD" fill-opacity="1.000000" fill-rule="nonzero"/>
	<path id="Star" d="M41.71 0L39.12 7.94L30.73 7.94L37.52 12.85L34.93 20.8L41.71 15.89L48.49 20.8L45.9 12.85L52.68 7.94L44.3 7.94L41.71 0Z" fill="#1C62CD" fill-opacity="1.000000" fill-rule="nonzero"/>
	<path id="Star" d="M11.53 0L8.94 7.94L0.56 7.94L7.34 12.85L4.75 20.8L11.53 15.89L18.31 20.8L15.72 12.85L22.51 7.94L14.12 7.94L11.53 0Z" fill="#1C62CD" fill-opacity="1.000000" fill-rule="nonzero"/>
</svg>
